<svg width="24" height="25" viewBox="0 0 24 25" fill="none" xmlns="http://www.w3.org/2000/svg">
<path id="Vector" d="M4.748 0.833313H14.0813V3.16665H4.748V0.833313ZM2.41466 5.49998V3.16665H4.748V5.49998H2.41466ZM2.41466 14.8333H0.0813293V5.49998H2.41466V14.8333ZM4.748 17.1666H2.41466V14.8333H4.748V17.1666ZM14.0813 17.1666V19.5H4.748V17.1666H14.0813ZM16.4147 14.8333H14.0813V17.1666H16.4147V19.5H18.748V21.8333H21.0813V24.1666H23.4147V21.8333H21.0813V19.5H18.748V17.1666H16.4147V14.8333ZM16.4147 5.49998H18.748V14.8333H16.4147V5.49998ZM16.4147 5.49998V3.16665H14.0813V5.49998H16.4147Z" fill="#FF9F1C"/>
</svg>
